<?xml version="1.0" encoding="UTF-8"?>
<svg version="1.1" xmlns="http://www.w3.org/2000/svg" width="1254" height="1254">
<path d="M0 0 C413.82 0 827.64 0 1254 0 C1254 413.82 1254 827.64 1254 1254 C840.18 1254 426.36 1254 0 1254 C0 840.18 0 426.36 0 0 Z " fill="#141423" transform="translate(0,0)"/>
<path d="M0 0 C413.82 0 827.64 0 1254 0 C1254 413.82 1254 827.64 1254 1254 C840.18 1254 426.36 1254 0 1254 C0 840.18 0 426.36 0 0 Z M233 95 C231.58847656 95.51433594 231.58847656 95.51433594 230.1484375 96.0390625 C207.71684791 104.82213561 186.03686997 118.04195573 168 134 C167.26007813 134.63164062 166.52015625 135.26328125 165.7578125 135.9140625 C153.65043541 146.47234757 141.41844247 157.95587392 132 171 C131.25234375 171.99257812 130.5046875 172.98515625 129.734375 174.0078125 C116.01855921 192.44049077 103.44156547 213.36236893 96.7890625 235.46484375 C96.00596823 237.98082485 95.04366954 240.33203278 94 242.75 C90.05710233 252.40544232 88.01129146 262.91152196 86.43359375 273.1875 C85.85847341 276.91801032 85.16074642 280.62246741 84.46484375 284.33203125 C84.23474609 285.65267578 84.23474609 285.65267578 84 287 C83.82806568 287.97561126 83.65613137 288.95122253 83.47898692 289.95639777 C82.76060823 295.07654491 82.86136602 300.20500756 82.87136555 305.3656044 C82.86961251 306.50932959 82.86785947 307.65305478 82.86605331 308.8314383 C82.86220257 312.00661836 82.86282211 315.18176127 82.86533108 318.35694151 C82.86696573 321.81132978 82.86282199 325.26571194 82.85942191 328.72009826 C82.85426891 334.77490419 82.85285054 340.82970213 82.85387802 346.88451004 C82.85540229 355.88880658 82.85124256 364.89309426 82.8460034 373.89738907 C82.8363273 390.9171533 82.83351902 407.93691451 82.83294634 424.95668116 C82.83248684 438.10423643 82.83042874 451.25179051 82.82724571 464.3993454 C82.82634816 468.18361719 82.82545835 471.96788899 82.82457083 475.75216079 C82.82434979 476.69295518 82.82412874 477.63374958 82.82390099 478.60305289 C82.8177455 505.07165312 82.81380054 531.54025294 82.81424427 558.00885391 C82.81425985 559.00702618 82.81427543 560.00519846 82.81429148 561.03361837 C82.81437459 566.09275861 82.81447363 571.15189886 82.81457619 576.2110391 C82.81459613 577.21579718 82.81461608 578.22055527 82.81463663 579.25576057 C82.81467706 581.28762965 82.81471886 583.31949873 82.81476202 585.35136781 C82.81537441 616.94518731 82.80787539 648.53899607 82.79418945 680.1328125 C82.77881805 715.63212059 82.77022392 751.13142162 82.77115268 786.63073325 C82.7712273 790.41877731 82.77127601 794.20682136 82.77130699 797.99486542 C82.77131865 798.9275686 82.7713303 799.86027179 82.77134231 800.82123871 C82.77137304 815.81252455 82.76499468 830.80380106 82.75637473 845.79508413 C82.74788419 860.8736753 82.7469192 875.95225284 82.75348405 891.03084508 C82.75717082 899.98069451 82.75537357 908.93050247 82.74554171 917.88034748 C82.73951969 923.87006899 82.74086175 929.85976062 82.74801221 935.84948078 C82.75187517 939.25487042 82.75160031 942.66011535 82.74455485 946.06550935 C82.70565784 966.20856679 83.21995643 985.57747004 89 1005 C89.43022461 1006.4526123 89.43022461 1006.4526123 89.86914062 1007.93457031 C94.6313198 1024.20703847 94.6313198 1024.20703847 101.67578125 1039.5703125 C103.01246359 1042.0228683 104.07946967 1044.53535645 105.16235352 1047.10742188 C113.75640381 1066.52481561 126.8910068 1084.26063425 141 1100 C141.88944623 1101.01161034 142.77876831 1102.02332985 143.66796875 1103.03515625 C167.49117724 1129.85675842 198.43708563 1151.30794216 232 1164 C232.76006348 1164.29189209 233.52012695 1164.58378418 234.30322266 1164.88452148 C265.12462308 1176.55749016 296.32632913 1179.47562258 329.10165405 1179.3742218 C331.82569159 1179.37530378 334.549716 1179.38090609 337.27374804 1179.38626546 C343.14227324 1179.39546039 349.01071226 1179.39379045 354.87923622 1179.38453293 C363.60587125 1179.37080515 372.33244142 1179.37454003 381.0590814 1179.38149153 C396.65000888 1179.3933573 412.24089565 1179.38837916 427.83182084 1179.37621326 C441.46757157 1179.36564618 455.10330848 1179.36114171 468.73906326 1179.36250877 C470.09969413 1179.36263482 470.09969413 1179.36263482 471.48781248 1179.36276341 C475.17050521 1179.36311569 478.85319794 1179.36349972 482.53589066 1179.36392899 C517.01434993 1179.36788579 551.49278477 1179.35521272 585.97123705 1179.33440243 C616.58141679 1179.31601386 647.19157315 1179.31022639 677.80175781 1179.31567383 C679.76944702 1179.31602026 681.73713623 1179.31636636 683.70482545 1179.31671212 C684.67763348 1179.31688311 685.65044151 1179.31705411 686.65272857 1179.31723029 C691.55006314 1179.31808387 696.44739771 1179.31890765 701.34473228 1179.31969929 C702.31097935 1179.31985637 703.27722641 1179.32001345 704.27275369 1179.32017529 C729.88860269 1179.32416598 755.50444944 1179.3186894 781.12029707 1179.310188 C783.87648099 1179.309281 786.6326649 1179.30837535 789.38884881 1179.30747276 C791.2170465 1179.30687166 793.04524418 1179.30626304 794.87344187 1179.30564686 C807.60539018 1179.30142958 820.33733407 1179.30084546 833.06928286 1179.30275235 C849.46782904 1179.30519629 865.86635154 1179.30111437 882.26489125 1179.28554235 C890.93171332 1179.27750156 899.59849596 1179.27488367 908.26532037 1179.2801847 C914.05802246 1179.28316711 919.85068976 1179.2788426 925.64338354 1179.26863613 C928.94079517 1179.26302406 932.23811106 1179.26158559 935.53552572 1179.26680271 C939.09549238 1179.27192365 942.65523414 1179.26470242 946.21518517 1179.25447559 C947.22737106 1179.25887208 948.23955696 1179.26326856 949.28241515 1179.26779827 C956.66574993 1179.2274888 963.73463587 1178.27482463 971 1177 C972.40668256 1176.76032611 972.40668256 1176.76032611 973.84178295 1176.51581033 C988.78067805 1173.9495248 1003.81719052 1170.89994979 1017.80859375 1164.9140625 C1021.46301066 1163.38976026 1025.22961052 1162.20215317 1029 1161 C1029 1160.34 1029 1159.68 1029 1159 C1030.07979126 1158.82803101 1030.07979126 1158.82803101 1031.18139648 1158.65258789 C1034.13633391 1157.96843477 1036.40913683 1156.9530415 1039.09765625 1155.55859375 C1040.05816895 1155.06149902 1041.01868164 1154.5644043 1042.00830078 1154.05224609 C1043.01618652 1153.51937988 1044.02407227 1152.98651367 1045.0625 1152.4375 C1046.61686768 1151.61886475 1046.61686768 1151.61886475 1048.20263672 1150.78369141 C1055.46483916 1146.9145507 1062.3763712 1142.89993593 1069 1138 C1070.02609375 1137.24460937 1071.0521875 1136.48921875 1072.109375 1135.7109375 C1093.07811999 1120.02458804 1110.45249912 1102.03683861 1126 1081 C1126.4424707 1080.40364746 1126.88494141 1079.80729492 1127.34082031 1079.19287109 C1133.56534076 1070.68174167 1138.5194481 1061.52848856 1143.375 1052.1875 C1143.97046631 1051.0423291 1144.56593262 1049.8971582 1145.17944336 1048.71728516 C1148.4825807 1042.25737872 1151.42567189 1035.78083332 1154 1029 C1154.42023438 1027.98292969 1154.84046875 1026.96585938 1155.2734375 1025.91796875 C1161.8886781 1009.52061705 1165.79737178 992.92544718 1167.70629883 975.36743164 C1168 973 1168 973 1168.51014209 970.55221939 C1169.1896978 965.62440073 1169.1397279 960.7658595 1169.13142776 955.79705811 C1169.1334804 954.6587623 1169.13553303 953.52046649 1169.13764787 952.34767687 C1169.1433282 948.51139621 1169.14185932 944.67515133 1169.14044189 940.83886719 C1169.14247502 938.06925139 1169.14599911 935.29963793 1169.1494453 932.53002357 C1169.15702379 925.70208856 1169.15921828 918.87416137 1169.15977435 912.04622259 C1169.16068818 903.86810843 1169.16735644 895.6900015 1169.17412117 887.51189046 C1169.19018422 867.74149599 1169.19608546 847.97110229 1169.20086992 828.20070247 C1169.20320626 818.84403426 1169.20680902 809.48736666 1169.2105653 800.13069893 C1169.22340306 768.09080563 1169.23412049 736.05091267 1169.2375679 704.01101685 C1169.23778953 701.99947655 1169.23801132 699.98793626 1169.23823325 697.97639596 C1169.23845389 695.96002603 1169.23867438 693.94365609 1169.2388947 691.92728615 C1169.23933725 687.88218816 1169.23978437 683.83709017 1169.24023438 679.79199219 C1169.24039846 678.28756725 1169.24039846 678.28756725 1169.24056586 676.75274989 C1169.2441938 644.25639348 1169.26010275 611.76005942 1169.28342474 579.26371157 C1169.3080461 544.89385204 1169.32174188 510.52400527 1169.32293582 476.15413666 C1169.32310727 472.37753804 1169.32332269 468.60093943 1169.32357025 464.82434082 C1169.32362602 463.8944597 1169.32368179 462.96457859 1169.32373925 462.00651926 C1169.32488791 447.06876521 1169.33589448 432.13103416 1169.35045731 417.19328786 C1169.36485661 402.16268775 1169.36804002 387.13211696 1169.36001733 372.10151184 C1169.35557668 363.18338277 1169.35935858 354.26534869 1169.37525584 345.34723219 C1169.38506357 339.37479196 1169.38377281 333.40241767 1169.37381961 327.42997792 C1169.36846876 324.03684835 1169.36927974 320.64404629 1169.38032833 317.25090933 C1169.43947518 297.84599213 1168.43524001 278.80919531 1163.5625 259.9375 C1163.34859619 259.07737305 1163.13469238 258.21724609 1162.91430664 257.33105469 C1160.5808838 248.087611 1158.11484428 238.97749396 1154.0390625 230.328125 C1152.85666976 227.67885406 1151.91148036 224.98275066 1150.9375 222.25 C1145.04809618 206.82192986 1136.60632752 192.38956021 1127 179 C1125.87464844 177.41638672 1125.87464844 177.41638672 1124.7265625 175.80078125 C1120.27327204 169.69899204 1115.48222631 164.0540739 1110.33984375 158.5234375 C1108.32018625 156.34530938 1106.36836636 154.13139348 1104.4375 151.875 C1096.94187366 143.32096346 1088.75837829 136.18292856 1079.73144531 129.32128906 C1078.13098559 128.09995685 1076.54525388 126.85938929 1074.9609375 125.6171875 C1067.95142068 120.19473109 1060.65407511 115.56171717 1052.98828125 111.14697266 C1050.94364859 109.96749276 1048.90950345 108.77107 1046.875 107.57421875 C1039.43593342 103.24383242 1032.23128899 99.63019665 1024 97 C1022.74696123 96.52883705 1021.49676668 96.05001774 1020.25 95.5625 C1008.59967841 91.22310896 997.08985316 87.89380911 984.91943359 85.39794922 C983.36572269 85.07582396 981.81676011 84.73085101 980.26953125 84.37890625 C963.08186354 80.56271153 945.60901202 80.71333633 928.10366821 80.74603271 C925.40063807 80.74372509 922.69761912 80.74062785 919.99459207 80.73657823 C914.14390681 80.72939746 908.29325854 80.72954754 902.44257164 80.73467255 C893.74192944 80.74227309 885.04131814 80.73835163 876.34067612 80.73225593 C860.79601668 80.72174985 845.25137373 80.72262715 829.70671274 80.72841376 C816.1017286 80.73345317 802.49675048 80.73475441 788.89176559 80.73236847 C787.98784826 80.7322157 787.08393093 80.73206293 786.15262216 80.73190553 C782.48292014 80.73128281 778.81321813 80.730646 775.14351612 80.729986 C740.7459567 80.72387337 706.34840775 80.72940622 671.95084995 80.7401798 C641.42263133 80.74966879 610.89442941 80.74882248 580.36621094 80.73925781 C546.03290119 80.72853683 511.69960069 80.72430856 477.3662895 80.73048234 C473.70281498 80.73112373 470.03934046 80.73174941 466.37586594 80.73236847 C465.47388784 80.73252662 464.57190974 80.73268478 463.64259897 80.73284773 C450.05098207 80.735118 436.45937187 80.73247082 422.86775589 80.72740936 C407.40435572 80.72167942 391.94097456 80.72314474 376.47757675 80.73397085 C367.83448877 80.73982318 359.19144199 80.74025619 350.54835513 80.7326785 C344.76222281 80.72816722 338.97612325 80.73103233 333.18999576 80.73968804 C329.90191696 80.74440811 326.61393468 80.74502902 323.32585593 80.73887607 C292.10655565 80.68496619 262.46271823 84.21760661 233 95 Z " fill="#FCFCFC" transform="translate(0,0)"/>
<path d="M0 0 C1.2418808 0.00040787 1.2418808 0.00040787 2.5088501 0.00082397 C14.49206296 0.01897112 26.2704328 0.28208635 38.125 2.1875 C39.34058594 2.37054688 40.55617188 2.55359375 41.80859375 2.7421875 C56.91292427 5.37609659 72.50499111 10.11981971 86.125 17.1875 C86.81658203 17.53683594 87.50816406 17.88617188 88.22070312 18.24609375 C102.25873203 25.34070654 115.00255766 33.09452483 127.125 43.1875 C128.61966797 44.40373047 128.61966797 44.40373047 130.14453125 45.64453125 C143.32795718 56.46707757 155.13979778 68.33636922 165.125 82.1875 C165.60146973 82.84669434 166.07793945 83.50588867 166.56884766 84.18505859 C188.81737751 115.362323 205.23792958 154.17374967 205.29296875 193.0234375 C205.29629715 193.86105621 205.29962555 194.69867493 205.30305481 195.56167603 C205.30809741 197.33163916 205.31046396 199.10161172 205.31030273 200.87158203 C205.31246532 203.5200263 205.33058302 206.16803681 205.34960938 208.81640625 C205.39661756 222.79712967 204.54472467 236.59797092 201.3125 250.25 C201.14218262 250.98911621 200.97186523 251.72823242 200.79638672 252.48974609 C198.97094133 260.18750634 196.67759927 267.70288739 194.125 275.1875 C193.70734375 276.4353125 193.2896875 277.683125 192.859375 278.96875 C185.11493437 301.26680806 173.13333288 321.99972531 158.125 340.1875 C157.01318359 341.55648437 157.01318359 341.55648437 155.87890625 342.953125 C154.31975416 344.86814268 152.75484205 346.77848831 151.18359375 348.68359375 C150.01690575 350.10265829 148.85751134 351.52800785 147.72265625 352.97265625 C145.54792858 355.71852452 143.22886942 358.0043487 140.5625 360.25 C136.98274517 363.29654161 133.81315127 366.62512419 130.66497803 370.10520935 C124.30190148 377.06385471 117.70699357 383.76762147 111.04785156 390.44165039 C109.78796604 391.70782269 108.52826188 392.97417548 107.26872253 394.24069214 C103.18783589 398.34231985 99.10188765 402.43888557 95.015625 406.53515625 C93.59922026 407.95561671 92.18284628 409.37610783 90.76650238 410.79662895 C84.12157366 417.46052573 77.47429389 424.12206613 70.82406735 430.78067595 C63.17388084 438.44067075 55.5320857 446.10891376 47.89714265 453.78410155 C41.97009989 459.74130504 36.03540051 465.69081074 30.09491515 471.63460916 C26.55645066 475.17541955 23.02134293 478.71943219 19.49433136 482.27165413 C16.18366503 485.60561221 12.86358978 488.92990503 9.53612709 492.24709702 C8.32009795 493.46263135 7.10746183 494.68157146 5.89857292 495.90420723 C-8.74415979 510.70405321 -8.74415979 510.70405321 -19.5625 511.4375 C-34.75842022 511.07766947 -45.93192009 495.39575047 -55.97167969 485.44091797 C-57.40906881 484.02015171 -58.85181106 482.6047812 -60.29980469 481.19482422 C-79.78756041 462.21341551 -79.78756041 462.21341551 -80.4375 451 C-79.25199328 434.68639672 -64.0407306 424.24733496 -53.1640625 413.51171875 C-51.14554539 411.46220052 -49.24331811 409.37307967 -47.375 407.1875 C-44.68043588 404.03536839 -41.81180006 401.11063498 -38.875 398.1875 C-37.39471393 396.7078252 -35.91477236 395.22780572 -34.43505859 393.74755859 C-3.39501953 362.70751953 27.64501953 331.66748047 58.68505859 300.62744141 C59.46771591 299.84468338 60.25037323 299.06192535 61.05674744 298.25544739 C62.29360433 297.01877299 63.53077048 295.7824076 64.76856995 294.54667664 C89.36883587 269.9856121 104.40973452 239.53547779 104.5625 204.3125 C104.48177952 195.25744062 103.77818963 186.88947518 101.125 178.1875 C100.88523437 177.37925781 100.64546875 176.57101562 100.3984375 175.73828125 C99.69716337 173.5304237 98.91783824 171.36391871 98.125 169.1875 C97.86203125 168.3625 97.5990625 167.5375 97.328125 166.6875 C93.09810497 153.92322904 86.05026269 143.15894733 77.125 133.1875 C76.58617187 132.56617188 76.04734375 131.94484375 75.4921875 131.3046875 C58.20382521 112.62630613 31.97857714 103.35056644 7.1328125 101.96484375 C-0.64582113 101.73189583 -8.18579306 102.31652088 -15.875 103.5 C-16.63965576 103.61754639 -17.40431152 103.73509277 -18.19213867 103.85620117 C-26.58633472 105.28459269 -34.18535924 108.07293472 -41.75 111.9375 C-42.43980957 112.28748047 -43.12961914 112.63746094 -43.84033203 112.99804688 C-58.35897659 120.47540235 -70.20272088 130.19213476 -81.66796875 141.75 C-82.6678712 142.75109924 -83.66814877 143.75182393 -84.66877747 144.75219727 C-86.74837094 146.83334091 -88.82460732 148.91775381 -90.89819336 151.00488281 C-93.53538503 153.6590952 -96.17914343 156.30664524 -98.82523632 158.95198059 C-100.88548277 161.01250089 -102.94309854 163.07563164 -104.99987221 165.13961792 C-105.97316665 166.11605821 -106.9470359 167.09192594 -107.92152977 168.06716919 C-112.83357964 172.98714301 -117.60551661 177.95293639 -122.1363678 183.22549438 C-125.49116331 187.01130234 -129.10793377 190.54184642 -132.6953125 194.10546875 C-133.51699921 194.92574051 -134.33868591 195.74601227 -135.18527222 196.59114075 C-137.78782151 199.1881398 -140.39383653 201.78162841 -143 204.375 C-144.75674294 206.12671997 -146.51325549 207.87867102 -148.26953125 209.63085938 C-152.18041187 213.53185852 -156.09218556 217.43194776 -160.01025391 221.32572937 C-161.15709909 222.4707446 -162.29916916 223.62059602 -163.43310547 224.77839661 C-168.39179841 229.83882063 -174.37931607 232.35397051 -181.5 232.625 C-189.99226301 232.60821687 -195.44555506 228.21119758 -201.23480225 222.57373047 C-202.12153625 221.68314941 -203.00827026 220.79256836 -203.921875 219.875 C-204.85549866 218.95090332 -205.78912231 218.02680664 -206.7510376 217.07470703 C-208.71932679 215.12274323 -210.67788076 213.16160963 -212.63037109 211.19384766 C-215.11380352 208.69316706 -217.62333663 206.22070156 -220.14146042 203.75502014 C-222.56392588 201.37391226 -224.96002179 198.96689485 -227.359375 196.5625 C-228.25420593 195.68811279 -229.14903687 194.81372559 -230.07098389 193.9128418 C-237.05696958 186.79622179 -240.84158702 179.67605474 -241.5 169.625 C-241.06513258 159.36321503 -233.19715405 151.94106199 -226.22265625 145.1796875 C-225.40429794 144.36936066 -224.58593964 143.55903381 -223.74278259 142.72415161 C-221.15041537 140.1605272 -218.54472582 137.61100343 -215.9375 135.0625 C-213.3365228 132.50428057 -210.7384805 129.94314903 -208.14292908 127.37942505 C-206.53496784 125.79285902 -204.92349921 124.20983663 -203.30787659 122.631073 C-199.95896042 119.34085624 -196.69439292 116.04314258 -193.64453125 112.47241211 C-188.34282445 106.31027576 -182.51330356 100.6402643 -176.77734375 94.88671875 C-175.8368024 93.94193633 -175.8368024 93.94193633 -174.87726021 92.9780674 C-171.55702282 89.64291357 -168.23397601 86.3105904 -164.90844727 82.98071289 C-161.51202082 79.57882107 -158.12496747 76.16775834 -154.74008846 72.75438213 C-152.10172263 70.09719572 -149.45648073 67.44693215 -146.80945015 64.7983799 C-145.55969716 63.54564212 -144.31239315 62.29045534 -143.06782341 61.03256798 C-132.61228738 50.47319634 -121.56006868 40.91874086 -109.0625 32.8125 C-108.43923828 32.40241699 -107.81597656 31.99233398 -107.17382812 31.56982422 C-102.52718052 28.54081795 -97.77471413 25.78673859 -92.875 23.1875 C-91.62279031 22.46213463 -90.37267303 21.73314121 -89.125 21 C-86.38258208 19.47057462 -83.77972934 18.34233928 -80.875 17.1875 C-79.39510336 16.45981602 -77.91599757 15.73052241 -76.4375 15 C-60.73737332 7.87698951 -43.87079783 3.74376378 -26.875 1.1875 C-26.22337891 1.0836499 -25.57175781 0.9797998 -24.90039062 0.87280273 C-16.66721887 -0.25217115 -8.2932829 -0.01015504 0 0 Z " fill="#846FFA" transform="translate(800.875,298.8125)"/>
<path d="M0 0 C0.93070313 0.03609375 1.86140625 0.0721875 2.8203125 0.109375 C3.49835938 0.15578125 4.17640625 0.2021875 4.875 0.25 C4.875 0.91 4.875 1.57 4.875 2.25 C5.57625 2.3325 6.2775 2.415 7 2.5 C14.34595326 4.41633563 19.42549675 10.47927276 24.6328125 15.671875 C25.45828583 16.49069153 26.28375916 17.30950806 27.13424683 18.15313721 C28.8732121 19.88200525 30.60949876 21.61357121 32.34326172 23.34765625 C34.98762094 25.98764142 37.64755463 28.61121719 40.30859375 31.234375 C42.00097977 32.9208924 43.69241799 34.60836153 45.3828125 36.296875 C46.17454865 37.07424011 46.96628479 37.85160522 47.78201294 38.65252686 C53.84670441 44.76757132 58.44885435 50.60964838 58.4375 59.625 C58.0009645 70.76949441 52.63196867 77.0684011 44.7890625 84.4140625 C42.68358894 86.40193025 40.79491405 88.48030316 38.92584229 90.69114685 C33.9463875 96.4114707 28.53107182 101.69311961 23.14746094 107.02758789 C21.97192353 108.19628227 20.79664278 109.36523486 19.62159729 110.53442383 C17.10315344 113.03960549 14.58328928 115.54334653 12.06240082 118.04606819 C8.06413284 122.01630154 4.0714461 125.99211608 0.07989502 129.96910095 C-1.29211139 131.33596424 -2.66412453 132.70282076 -4.03614426 134.06967068 C-4.7229809 134.75392176 -5.40981753 135.43817283 -6.1174674 136.14315879 C-15.39933848 145.38912488 -24.68590304 154.63033677 -33.98291016 163.86108398 C-40.27006382 170.10351862 -46.54988396 176.35323376 -52.82173133 182.61104769 C-56.13150249 185.91280454 -59.44479113 189.21084053 -62.76721954 192.49986458 C-65.89835601 195.59957267 -69.01969646 198.70883448 -72.13429451 201.82515717 C-73.26783884 202.95604225 -74.40473378 204.08358239 -75.54552269 205.20715904 C-86.11844756 215.62765286 -95.61994948 227.17075064 -102.4375 240.4375 C-102.84282959 241.21577148 -103.24815918 241.99404297 -103.66577148 242.79589844 C-115.63271394 266.7345539 -118.32232832 295.71733801 -110.125 321.25 C-109.58166016 323.05597656 -109.58166016 323.05597656 -109.02734375 324.8984375 C-104.99313646 337.28824024 -98.58240388 348.34688606 -90.125 358.25 C-89.45984375 359.05953125 -88.7946875 359.8690625 -88.109375 360.703125 C-73.75411544 377.53699052 -51.24025479 390.31906262 -29.125 393.25 C-27.98611328 393.41435547 -27.98611328 393.41435547 -26.82421875 393.58203125 C3.61686786 397.31866218 31.38896053 388.89408364 55.86328125 371.07421875 C60.87368899 367.132698 65.47526857 363.0052472 69.66796875 358.19140625 C73.58963551 353.69324689 77.57355509 349.65433286 82.1328125 345.8046875 C84.34075356 343.83437238 86.04434807 341.56882578 87.875 339.25 C89.85760426 337.56267723 91.8582342 335.89633943 93.875 334.25 C96.35220235 331.89075967 98.61201792 329.59459721 100.6875 326.875 C102.55121353 324.63854377 104.31116798 322.95354922 106.515625 321.0847168 C110.83203402 317.34475858 114.82839903 313.35780198 118.8125 309.26953125 C120.29903212 307.76062716 121.78602512 306.252177 123.2734375 304.74414062 C125.58191491 302.39853283 127.88714618 300.05004182 130.18457031 297.69360352 C132.4263388 295.39715193 134.68077667 293.11377594 136.9375 290.83203125 C137.95348267 289.78037529 137.95348267 289.78037529 138.98999023 288.70747375 C143.95430159 283.71638012 148.89547984 279.98789057 155.9296875 278.68359375 C157.32574219 278.68552734 157.32574219 278.68552734 158.75 278.6875 C159.67554688 278.66558594 160.60109375 278.64367187 161.5546875 278.62109375 C171.04324061 280.41833734 177.62398214 286.25900215 184.20703125 292.953125 C185.04666916 293.79035095 185.88630707 294.6275769 186.75138855 295.49017334 C188.5127774 297.25253611 190.26801959 299.02106172 192.01733398 300.79541016 C194.68170071 303.49412595 197.36928419 306.16797799 200.06054688 308.83984375 C201.77747873 310.56367405 203.49302152 312.28888919 205.20703125 314.015625 C206.00293167 314.80656555 206.79883209 315.5975061 207.61885071 316.41241455 C213.11393334 322.02381264 218.00345374 327.77948034 219.5390625 335.65625 C219.38540753 347.82572336 214.34823706 354.84702196 205.875 363.25 C204.63052868 364.34485802 203.37988574 365.43271931 202.125 366.515625 C197.77902511 370.27880632 193.72576992 374.28649323 189.6875 378.375 C189.00236328 379.06464844 188.31722656 379.75429688 187.61132812 380.46484375 C186.28964562 381.79543075 184.96887894 383.12692827 183.64916992 384.45947266 C180.59997374 387.5367817 177.54038219 390.60167889 174.4375 393.625 C172.48717973 395.62288906 170.67486799 397.62330176 168.875 399.75 C161.5832562 408.33182155 161.5832562 408.33182155 156.875 410.25 C156.875 410.91 156.875 411.57 156.875 412.25 C156.215 412.25 155.555 412.25 154.875 412.25 C154.875 412.91 154.875 413.57 154.875 414.25 C153.25525441 415.96230248 151.5791054 417.62163262 149.875 419.25 C149.05 420.075 148.225 420.9 147.375 421.75 C144.875 424.25 142.375 426.75 139.875 429.25 C139.07449219 430.054375 138.27398438 430.85875 137.44921875 431.6875 C123.05984843 446.01136484 107.49385091 458.09787401 89.875 468.25 C88.82441406 468.88035156 87.77382813 469.51070312 86.69140625 470.16015625 C67.95888827 480.85533962 46.10052942 488.24173449 24.875 491.9375 C23.84330688 492.11720337 23.84330688 492.11720337 22.79077148 492.30053711 C-31.07528545 500.91035259 -83.94577527 486.56424198 -127.95214844 455.17895508 C-133.11841812 451.39233064 -137.80768844 447.17858633 -142.44921875 442.7734375 C-144.6852668 440.6646973 -146.96068144 438.66358423 -149.3125 436.6875 C-163.95088572 423.87891249 -175.17296555 407.03104582 -184.89794922 390.34423828 C-186.0479971 388.38142277 -187.22407789 386.43727928 -188.41015625 384.49609375 C-192.50875988 377.69630801 -195.55416491 371.0424091 -198.01953125 363.50390625 C-199.07880989 360.22323291 -199.07880989 360.22323291 -200.54296875 357.06640625 C-218.70205882 315.47215789 -216.753217 260.37849155 -201.0925293 218.48828125 C-198.64290632 212.31131927 -195.95983948 206.25922798 -193.125 200.25 C-192.35349609 198.60837891 -192.35349609 198.60837891 -191.56640625 196.93359375 C-185.17167429 183.71584524 -177.21840309 171.78049604 -168.125 160.25 C-167.01705078 158.83267578 -167.01705078 158.83267578 -165.88671875 157.38671875 C-158.84457592 148.72724169 -150.95846443 140.92795336 -143.00512695 133.11572266 C-142.09077881 132.21515137 -141.17643066 131.31458008 -140.234375 130.38671875 C-139.41936523 129.58967529 -138.60435547 128.79263184 -137.76464844 127.97143555 C-135.80103004 125.94697622 -133.97681614 123.92308625 -132.15332031 121.78051758 C-127.21555999 116.09073917 -121.82883458 110.84313751 -116.48709106 105.53692627 C-114.5246836 103.58743245 -112.56554846 101.63470075 -110.60717773 99.68115234 C-105.74548803 94.83274085 -100.87833856 89.98982231 -96.01135254 85.14672852 C-91.88775058 81.04294582 -87.76626374 76.93706033 -83.64749146 72.82843018 C-81.72921486 70.91657521 -79.80792257 69.00778794 -77.88647461 67.09912109 C-72.69794293 61.93231169 -67.58563567 56.77864732 -62.83511353 51.20056152 C-56.24437881 43.68314624 -48.96157227 36.7363036 -41.92016602 29.64013672 C-39.84544188 27.54755795 -37.77959028 25.44677789 -35.72094727 23.33837891 C-33.21054872 20.76743648 -30.68540756 18.21186097 -28.14939308 15.6661911 C-26.73605339 14.24028709 -25.33749006 12.79978457 -23.93937683 11.35894775 C-17.08805345 4.529285 -10.0743745 -0.51663459 0 0 Z " fill="#7161FA" transform="translate(498.125,535.75)"/>
<path d="M0 0 C1.30066406 -0.0515625 2.60132813 -0.103125 3.94140625 -0.15625 C15.85693311 0.84079123 24.26774865 9.44919662 32.12158203 17.56665039 C33.81531566 19.31540713 35.53209602 21.03868933 37.25390625 22.75976562 C55.38342825 41.06549355 55.38342825 41.06549355 55.8125 53.8125 C55.302705 69.31876466 46.61272227 77.63270158 36 88 C30.36130058 93.53156016 24.80589427 99.00570455 19.79272461 105.11914062 C19.34550049 105.57482422 18.89827637 106.03050781 18.4375 106.5 C17.7775 106.5 17.1175 106.5 16.4375 106.5 C16.1075 107.49 15.7775 108.48 15.4375 109.5 C13.8115918 111.22920222 12.15118085 112.86050195 10.4375 114.5 C9.03526486 115.89464572 7.63600991 117.29229062 6.23880005 118.69197083 C4.54869106 120.37904385 2.85857633 122.06611113 1.16845703 123.75317383 C-8.27690069 133.18214406 -17.71969253 142.61367978 -27.16100883 152.04669666 C-32.87046657 157.75099907 -38.58086291 163.45435597 -44.29345703 169.15551758 C-49.29088394 174.14294869 -54.28652502 179.13216063 -59.28006852 184.12348002 C-61.9175597 186.75967386 -64.55590726 189.39499693 -67.19640732 192.02817726 C-70.14525328 194.968913 -73.09010567 197.9136176 -76.03466797 200.85864258 C-76.89931671 201.71969604 -77.76396545 202.58074951 -78.65481567 203.46789551 C-82.95054196 207.77091074 -87.08422804 212.14564408 -91.04904938 216.75539112 C-93.03186567 219.04105466 -95.11686153 221.21017447 -97.23754883 223.36791992 C-98.08565628 224.2320903 -98.93376373 225.09626068 -99.80757141 225.98661804 C-103.64725655 229.87145536 -107.48913113 233.75401921 -111.34008789 237.62768555 C-113.36509594 239.66605622 -115.38257027 241.71146131 -117.39379883 243.76342773 C-119.84803365 246.26732341 -122.31463911 248.75839502 -124.79028893 251.24111366 C-126.16865777 252.62932136 -127.53481756 254.02961822 -128.90058899 255.43022156 C-136.14152308 262.64709106 -144.11277219 268.51587318 -154.6875 268.75 C-162.44014398 268.58505013 -168.3495194 266.96250541 -174.109375 261.61328125 C-174.97812256 260.80785889 -175.84687012 260.00243652 -176.74194336 259.17260742 C-178.1381189 257.84966675 -178.1381189 257.84966675 -179.5625 256.5 C-180.0480838 256.04219147 -180.5336676 255.58438293 -181.03396606 255.11270142 C-184.15436345 252.16522661 -187.23750268 249.18286802 -190.29614258 246.17138672 C-191.35151194 245.13772203 -192.41310569 244.11037558 -193.48071289 243.08935547 C-201.247146 235.65605741 -208.09789916 228.25615559 -209.2265625 217.05859375 C-209.23946108 215.68489468 -209.22692183 214.31069388 -209.1875 212.9375 C-209.20683594 212.26009766 -209.22617187 211.58269531 -209.24609375 210.88476562 C-209.15096594 200.77267986 -203.41092002 193.83665615 -196.52078247 187.02217102 C-194.91747386 185.46481083 -193.30344618 183.91923402 -191.6875 182.375 C-190.07790869 180.81593616 -188.47207332 179.25315165 -186.86862183 177.68777466 C-185.41247367 176.2694545 -183.94701663 174.86070944 -182.48095703 173.45263672 C-180.41264738 171.41368204 -178.51050749 169.29315864 -176.63232422 167.07861328 C-171.34737438 160.97299843 -165.53721645 155.36508514 -159.81341553 149.67575073 C-157.64938959 147.52461663 -155.48861522 145.37026211 -153.32861328 143.21508789 C-147.96606327 137.86582947 -142.59805954 132.52205475 -137.23022461 127.17810059 C-132.68387014 122.65155022 -128.13961925 118.12290739 -123.5980835 113.59152222 C-121.48037095 111.48024075 -119.35964452 109.37201992 -117.23876953 107.26391602 C-115.92725928 105.9560419 -114.61589125 104.64802514 -113.3046875 103.33984375 C-112.43321075 102.47611649 -112.43321075 102.47611649 -111.54412842 101.59494019 C-108.61267789 98.66386211 -105.80821071 95.67108721 -103.09692383 92.53442383 C-99.65034356 88.55197728 -96.00761675 84.81714739 -92.26953125 81.109375 C-91.23147842 80.07351257 -91.23147842 80.07351257 -90.17245483 79.01672363 C-88.68350346 77.53155022 -87.19339898 76.04753208 -85.70223999 74.5645752 C-83.33659364 72.21180265 -80.97418172 69.85582412 -78.61254883 67.49902344 C-72.7491395 61.6489168 -66.88028148 55.80428617 -61.01159668 49.95947266 C-56.04248841 45.01015593 -51.07547418 40.05875529 -46.11117554 35.10461426 C-43.79402763 32.79390529 -41.47386741 30.48625109 -39.15356445 28.17871094 C-37.72071656 26.74949865 -36.2880106 25.32014404 -34.85546875 23.890625 C-33.89983536 22.94274109 -33.89983536 22.94274109 -32.92489624 21.97570801 C-29.13106567 18.18231926 -25.54433873 14.26599488 -22.05784607 10.18777466 C-20.33836347 8.24702046 -18.53735139 6.64497611 -16.4375 5.125 C-15.81617188 4.66351562 -15.19484375 4.20203125 -14.5546875 3.7265625 C-9.74499938 0.76530354 -5.6383594 0.13227823 0 0 Z " fill="#7D6AFA" transform="translate(721.5625,538.5)"/>
<path d="M0 0 C0.66 0.33 1.32 0.66 2 1 C-3.30871006 7.25338293 -8.94595847 13.12082732 -14.73046875 18.93359375 C-15.64331131 19.85213638 -16.55615387 20.77067902 -17.49665833 21.71705627 C-19.41343573 23.64424526 -21.33245386 25.56917316 -23.25268555 27.49291992 C-25.71067879 29.95644526 -28.15921895 32.42915363 -30.60579967 34.904006 C-32.95330728 37.27457913 -35.31132721 39.63460109 -37.66796875 41.99609375 C-38.54406296 42.88453476 -39.42015717 43.77297577 -40.32279968 44.68833923 C-41.54976311 45.91080101 -41.54976311 45.91080101 -42.80151367 47.15795898 C-43.87570808 48.23762184 -43.87570808 48.23762184 -44.97160339 49.33909607 C-47.04577832 51.03748448 -48.37839792 51.60791653 -51 52 C-45.87458022 45.79652613 -40.2723094 40.14315324 -34.5703125 34.47265625 C-33.56975714 33.47396983 -32.56942519 32.47505953 -31.56930542 31.47593689 C-28.9576612 28.86808036 -26.34302633 26.26324305 -23.72772217 23.65905762 C-21.05101677 20.99264764 -18.37719898 18.32334536 -15.703125 15.65429688 C-10.47154602 10.43338899 -5.23679904 5.21567249 0 0 Z " fill="#6458EC" transform="translate(482,540)"/>
<path d="M0 0 C0.495 1.485 0.495 1.485 1 3 C0.2575 3.556875 -0.485 4.11375 -1.25 4.6875 C-3.93910738 6.94879484 -5.84565107 9.23974044 -8 12 C-9.6504926 13.68560946 -11.31750712 15.34663581 -13 17 C-16.23416635 20.18247542 -19.46210658 23.37113485 -22.6875 26.5625 C-23.55439453 27.41263672 -24.42128906 28.26277344 -25.31445312 29.13867188 C-26.14267578 29.96044922 -26.97089844 30.78222656 -27.82421875 31.62890625 C-28.57791748 32.37213135 -29.33161621 33.11535645 -30.1081543 33.88110352 C-31.89133954 35.87829861 -32.84321592 37.61823919 -34 40 C-35.41271672 41.18273958 -36.82978191 42.36124493 -38.28125 43.49609375 C-40.97753836 45.85534607 -43.14620188 48.63929935 -45.38671875 51.42578125 C-47 53 -47 53 -50 53 C-41.89410531 42.97878842 -33.01638695 33.83965412 -23.83154297 24.81787109 C-19.20125715 20.25646149 -14.71978179 15.66414939 -10.49487305 10.72412109 C-8.45636283 8.3729927 -6.27915328 6.18255092 -4.0625 4 C-3.29035156 3.236875 -2.51820313 2.47375 -1.72265625 1.6875 C-1.15417969 1.130625 -0.58570313 0.57375 0 0 Z " fill="#685FF5" transform="translate(379,644)"/>
<path d="M0 0 C0.66 0.33 1.32 0.66 2 1 C-17.14 20.14 -36.28 39.28 -56 59 C-56.66 58.67 -57.32 58.34 -58 58 C-57.2575 57.278125 -56.515 56.55625 -55.75 55.8125 C-53.04139481 53.15316684 -53.04139481 53.15316684 -51.125 50.5625 C-48.91098741 47.89266129 -46.55604562 45.81143401 -43.87890625 43.625 C-41.46375217 41.53621809 -39.25009312 39.26282814 -37 37 C-35.67897883 35.67828037 -34.35757295 34.35694521 -33.03588867 33.03588867 C-32.2954985 32.2954985 -31.55510834 31.55510834 -30.7922821 30.7922821 C-20.52818807 20.52818807 -10.26409403 10.26409403 0 0 Z " fill="#8773F4" transform="translate(642,820)"/>
<path d="M0 0 C0 3.93296086 -1.19695265 4.67538784 -3.83984375 7.5234375 C-4.66210449 8.40999023 -5.48436523 9.29654297 -6.33154297 10.20996094 C-10.67442128 14.75071238 -15.09849188 19.20356863 -19.5625 23.625 C-20.47580078 24.53378906 -21.38910156 25.44257812 -22.33007812 26.37890625 C-24.55107971 28.58827955 -26.77440033 30.79526031 -29 33 C-29.33 32.01 -29.66 31.02 -30 30 C-20.1 20.1 -10.2 10.2 0 0 Z " fill="#1A183A" transform="translate(441,722)"/>
<path d="M0 0 C0.495 0.99 0.495 0.99 1 2 C-5.60852243 10.0065094 -13.08145736 17.19285618 -20.4375 24.5 C-21.75479059 25.81226585 -23.07184986 27.12476395 -24.38867188 28.4375 C-27.5897861 31.62768506 -30.79401865 34.81470651 -34 38 C-34.66 37.67 -35.32 37.34 -36 37 C-34.73724243 35.74509766 -34.73724243 35.74509766 -33.44897461 34.46484375 C-30.29483558 31.32894924 -27.14412559 28.189628 -23.99438477 25.04931641 C-22.63657873 23.69650645 -21.27787249 22.34459934 -19.91821289 20.99365234 C-9.63786718 10.79793707 -9.63786718 10.79793707 0 0 Z M-37 38 C-37 38.99 -37 39.98 -37 41 C-37.66 40.67 -38.32 40.34 -39 40 C-38.34 39.34 -37.68 38.68 -37 38 Z " fill="#6F62F7" transform="translate(611,407)"/>
<path d="M0 0 C0 3.71946442 -0.88871542 4.40514236 -3.3125 7.125 C-3.92738281 7.82882812 -4.54226563 8.53265625 -5.17578125 9.2578125 C-7 11 -7 11 -10 12 C-10.70095174 13.3156325 -11.36383155 14.6518487 -12 16 C-13.51220703 17.73925781 -13.51220703 17.73925781 -15.2578125 19.453125 C-15.88300781 20.071875 -16.50820313 20.690625 -17.15234375 21.328125 C-17.80332031 21.96234375 -18.45429687 22.5965625 -19.125 23.25 C-19.78371094 23.8996875 -20.44242188 24.549375 -21.12109375 25.21875 C-22.74296643 26.81711727 -24.3693281 28.41061897 -26 30 C-26.66 29.34 -27.32 28.68 -28 28 C-18.76 18.76 -9.52 9.52 0 0 Z " fill="#7566E9" transform="translate(580,670)"/>
<path d="M0 0 C0.66 0 1.32 0 2 0 C2.89114296 4.48271914 3.054391 8.58583401 2.87890625 13.1484375 C2.85529526 13.80582916 2.83168427 14.46322083 2.80735779 15.14053345 C2.73141555 17.2189477 2.64709817 19.29692192 2.5625 21.375 C2.50920952 22.79294796 2.45646973 24.21091673 2.40429688 25.62890625 C2.27589634 29.08620103 2.13998803 32.54315278 2 36 C1.01 36.495 1.01 36.495 0 37 C0 24.79 0 12.58 0 0 Z " fill="#5D52E8" transform="translate(286,806)"/>
<path d="M0 0 C11.55 0 23.1 0 35 0 C35.495 0.99 35.495 0.99 36 2 C31.63106263 2.84062776 27.5164802 3.11732956 23.0703125 3.09765625 C21.78125 3.09443359 20.4921875 3.09121094 19.1640625 3.08789062 C17.81770764 3.07953733 16.47135348 3.07107241 15.125 3.0625 C13.75520996 3.0574783 12.38541815 3.05291657 11.015625 3.04882812 C7.6770381 3.03707254 4.33854185 3.02063964 1 3 C0.67 2.01 0.34 1.02 0 0 Z " fill="#6F61D1" transform="translate(470,1027)"/>
<path d="M0 0 C0.33 0.99 0.66 1.98 1 3 C-5.93 9.93 -12.86 16.86 -20 24 C-20.33 23.01 -20.66 22.02 -21 21 C-14.07 14.07 -7.14 7.14 0 0 Z " fill="#1A1833" transform="translate(767,616)"/>
<path d="M0 0 C0 4.16086014 -2.2727153 5.8372402 -5 8.6875 C-5.49894775 9.21770752 -5.99789551 9.74791504 -6.51196289 10.29418945 C-7.52384989 11.36511265 -8.53954233 12.43245349 -9.55908203 13.49609375 C-10.83919345 14.83216395 -12.10612282 16.18083623 -13.37109375 17.53125 C-18.66793984 23.05839374 -18.66793984 23.05839374 -23 24 C-18.32533663 18.37696243 -13.32234333 13.20258446 -8.125 8.0625 C-7.34125 7.28326172 -6.5575 6.50402344 -5.75 5.70117188 C-3.83561419 3.79845915 -1.91891966 1.89813829 0 0 Z " fill="#6054DD" transform="translate(454,568)"/>
<path d="M0 0 C0.80373047 -0.00386719 1.60746094 -0.00773437 2.43554688 -0.01171875 C7.92455959 -0.00288687 13.24168674 0.43676282 18.6875 1.125 C16.6875 3.125 16.6875 3.125 14.80810547 3.35205078 C14.06447754 3.34157715 13.32084961 3.33110352 12.5546875 3.3203125 C11.34619141 3.31064453 11.34619141 3.31064453 10.11328125 3.30078125 C9.27152344 3.28402344 8.42976563 3.26726562 7.5625 3.25 C6.28826172 3.23646484 6.28826172 3.23646484 4.98828125 3.22265625 C2.88790116 3.19905647 0.78766556 3.16318483 -1.3125 3.125 C-1.3125 2.795 -1.3125 2.465 -1.3125 2.125 C-5.45343698 1.91529441 -5.45343698 1.91529441 -9.3125 3.125 C-11.32050456 2.84387936 -13.32264051 2.51432033 -15.3125 2.125 C-15.3125 1.795 -15.3125 1.465 -15.3125 1.125 C-10.16435906 0.0770747 -5.22669576 -0.02479065 0 0 Z " fill="#181931" transform="translate(295.3125,81.875)"/>
<path d="M0 0 C0.66 0.33 1.32 0.66 2 1 C-15.05538529 19.05429072 -15.05538529 19.05429072 -26 21 C-23.27415159 17.97450158 -19.97775115 15.82409677 -16.625 13.5625 C-10.5765292 9.46804431 -5.10201083 5.24778256 0 0 Z " fill="#7C6AEA" transform="translate(566,896)"/>
<path d="M0 0 C10.48877568 0.65554848 19.18198136 12.99490158 26 20 C25.34 20.66 24.68 21.32 24 22 C23.7525 21.38125 23.505 20.7625 23.25 20.125 C22.19995835 17.88950792 22.19995835 17.88950792 20.1875 17.125 C17.58964521 15.7889604 16.33889962 13.97949082 14.5546875 11.71875 C11.47696113 8.31623843 7.67730563 5.71686445 4 3 C2.66639222 2.00036604 1.33297053 1.00048355 0 0 Z " fill="#8476ED" transform="translate(732,541)"/>
<path d="M0 0 C3.36335594 1.45745424 5.54534005 3.31117854 8.109375 5.9140625 C8.86347656 6.67460937 9.61757813 7.43515625 10.39453125 8.21875 C11.17183594 9.0128125 11.94914063 9.806875 12.75 10.625 C13.54277344 11.42679687 14.33554687 12.22859375 15.15234375 13.0546875 C17.10614493 15.03202846 19.05512103 17.01388909 21 19 C20.34 19.66 19.68 20.32 19 21 C15.82530062 17.88307091 12.66164608 14.75516454 9.5 11.625 C8.59378906 10.73554688 7.68757812 9.84609375 6.75390625 8.9296875 C5.46806641 7.65351563 5.46806641 7.65351563 4.15625 6.3515625 C3.36025391 5.56604004 2.56425781 4.78051758 1.74414062 3.97119141 C0 2 0 2 0 0 Z " fill="#1F1C40" transform="translate(578,500)"/>
<path d="M0 0 C0.66 0.66 1.32 1.32 2 2 C-0.26328524 4.0091515 -2.53480776 6.0072998 -4.8125 8 C-5.77639648 8.85851562 -5.77639648 8.85851562 -6.75976562 9.734375 C-7.69272461 10.54648438 -7.69272461 10.54648438 -8.64453125 11.375 C-9.21534424 11.87773437 -9.78615723 12.38046875 -10.37426758 12.8984375 C-12 14 -12 14 -15 14 C-10.55487173 8.41509524 -5.75545909 4.20788009 0 0 Z " fill="#24253B" transform="translate(174,129)"/>
<path d="M0 0 C0.66 0.66 1.32 1.32 2 2 C1.401875 2.515625 0.80375 3.03125 0.1875 3.5625 C-2.5073536 6.56533687 -3.55720619 9.24873609 -5 13 C-5.66 13 -6.32 13 -7 13 C-7 16.3 -7 19.6 -7 23 C-7.33 23 -7.66 23 -8 23 C-8.89136882 14.31740744 -7.25770105 8.96032445 -2 2 C-1.34 1.34 -0.68 0.68 0 0 Z " fill="#5F55DC" transform="translate(568,451)"/>
<path d="M0 0 C0.33 0.99 0.66 1.98 1 3 C-2.96 6.96 -6.92 10.92 -11 15 C-11.99 14.67 -12.98 14.34 -14 14 C-9.38 9.38 -4.76 4.76 0 0 Z " fill="#6F60ED" transform="translate(626,392)"/>
<path d="M0 0 C0 3 0 3 -1.56054688 4.90112305 C-2.27275391 5.59761963 -2.98496094 6.29411621 -3.71875 7.01171875 C-4.48574219 7.76904297 -5.25273438 8.52636719 -6.04296875 9.30664062 C-6.85378906 10.09232422 -7.66460938 10.87800781 -8.5 11.6875 C-9.31082031 12.48478516 -10.12164063 13.28207031 -10.95703125 14.10351562 C-12.96482203 16.0758748 -14.9792687 18.04091492 -17 20 C-17 17 -17 17 -15.64453125 15.3515625 C-15.03996094 14.78179688 -14.43539062 14.21203125 -13.8125 13.625 C-12.85150391 12.70460938 -12.85150391 12.70460938 -11.87109375 11.765625 C-11.25363281 11.18296875 -10.63617187 10.6003125 -10 10 C-9.13375 9.13375 -8.2675 8.2675 -7.375 7.375 C-4.91666667 4.91666667 -2.45833333 2.45833333 0 0 Z " fill="#0F0D18" transform="translate(644,958)"/>
<path d="M0 0 C0.33 0 0.66 0 1 0 C1.22428282 7.94957992 0.95403042 15.27111181 -1 23 C-1.66 23 -2.32 23 -3 23 C-3 21.35 -3 19.7 -3 18 C-2.34 18 -1.68 18 -1 18 C-1.18433594 17.31550781 -1.36867188 16.63101563 -1.55859375 15.92578125 C-2.08413489 12.44232712 -1.65769926 9.6536604 -1.0625 6.1875 C-0.77052734 4.44533203 -0.77052734 4.44533203 -0.47265625 2.66796875 C-0.31667969 1.78753906 -0.16070313 0.90710938 0 0 Z " fill="#161525" transform="translate(1165,974)"/>
<path d="M0 0 C0.33 0.99 0.66 1.98 1 3 C0.2575 3.556875 -0.485 4.11375 -1.25 4.6875 C-4.03429681 6.8758014 -4.03429681 6.8758014 -6 9.5 C-8.09424035 12.11780044 -10.32606386 13.99454789 -13 16 C-13.66 15.67 -14.32 15.34 -15 15 C-10.05 10.05 -5.1 5.1 0 0 Z " fill="#5B50D6" transform="translate(379,644)"/>
<path d="M0 0 C0.66 0.33 1.32 0.66 2 1 C-3.61 6.61 -9.22 12.22 -15 18 C-15.66 17.34 -16.32 16.68 -17 16 C-16.34 16 -15.68 16 -15 16 C-14.67 15.01 -14.34 14.02 -14 13 C-12.29296875 11.3515625 -12.29296875 11.3515625 -10.1875 9.625 C-7.04508693 6.97165658 -4.50511485 4.27591942 -2 1 C-1.34 0.67 -0.68 0.34 0 0 Z " fill="#8977F4" transform="translate(762,619)"/>
<path d="M0 0 C0.33 0.66 0.66 1.32 1 2 C-6.29840547 10.44646925 -6.29840547 10.44646925 -10 14 C-10.99 13.67 -11.98 13.34 -13 13 C-8.71 8.71 -4.42 4.42 0 0 Z " fill="#6157E9" transform="translate(393,630)"/>
<path d="M0 0 C0.66 0.33 1.32 0.66 2 1 C-2.29 5.29 -6.58 9.58 -11 14 C-11.99 13.67 -12.98 13.34 -14 13 C-13.55269531 12.62488281 -13.10539063 12.24976563 -12.64453125 11.86328125 C-8.92946521 8.71854517 -5.39646896 5.49351093 -2 2 C-1.34 1.34 -0.68 0.68 0 0 Z " fill="#7967DE" transform="translate(583,879)"/>
<path d="M0 0 C0.66 0.66 1.32 1.32 2 2 C-1.63 5.63 -5.26 9.26 -9 13 C-9.33 11.68 -9.66 10.36 -10 9 C-9.34 9 -8.68 9 -8 9 C-7.67 8.01 -7.34 7.02 -7 6 C-6.34 6 -5.68 6 -5 6 C-5 5.34 -5 4.68 -5 4 C-4.01 3.67 -3.02 3.34 -2 3 C-1.34 2.01 -0.68 1.02 0 0 Z " fill="#907BF6" transform="translate(692,906)"/>
<path d="M0 0 C0.66 0.66 1.32 1.32 2 2 C-1.63 5.63 -5.26 9.26 -9 13 C-9.99 12.34 -10.98 11.68 -12 11 C-11.34 10.34 -10.68 9.68 -10 9 C-9.01 9 -8.02 9 -7 9 C-6.731875 8.360625 -6.46375 7.72125 -6.1875 7.0625 C-5 5 -5 5 -2 4 C-0.79117904 1.99983534 -0.79117904 1.99983534 0 0 Z " fill="#1F1B39" transform="translate(541,707)"/>
<path d="M0 0 C0.66 0.66 1.32 1.32 2 2 C-1.63 5.96 -5.26 9.92 -9 14 C-9.66 13.67 -10.32 13.34 -11 13 C-7.37 8.71 -3.74 4.42 0 0 Z " fill="#5F55E6" transform="translate(340,684)"/>
<path d="M0 0 C0.66 0.33 1.32 0.66 2 1 C-0.85276137 3.93200474 -3.65079784 6.64315404 -7 9 C-8.32 8.34 -9.64 7.68 -11 7 C-9.21475351 5.80286983 -7.4215972 4.61752721 -5.625 3.4375 C-4.62726563 2.77621094 -3.62953125 2.11492187 -2.6015625 1.43359375 C-1.74304688 0.96050781 -0.88453125 0.48742187 0 0 Z " fill="#292A40" transform="translate(200,111)"/>
<path d="M0 0 C4.41459584 0.40226457 6.53697056 3.40387125 9.25 6.5625 C9.70890625 7.08263672 10.1678125 7.60277344 10.640625 8.13867188 C11.7682143 9.41895555 12.88517315 10.70858798 14 12 C11 12 11 12 8.30078125 9.62890625 C7.29691517 8.61440318 6.30108274 7.59190164 5.3125 6.5625 C4.80138672 6.04623047 4.29027344 5.52996094 3.76367188 4.99804688 C0 1.15397613 0 1.15397613 0 0 Z " fill="#6C60F6" transform="translate(576,496)"/>
<path d="M0 0 C0 4.10746566 -1.63960436 5.19754861 -4.375 8.1875 C-5.18710937 9.08855469 -5.99921875 9.98960937 -6.8359375 10.91796875 C-9 13 -9 13 -11 13 C-9.46356148 9.31930113 -7.21849055 7.01224796 -4.375 4.25 C-3.55773437 3.45078125 -2.74046875 2.6515625 -1.8984375 1.828125 C-0.95871094 0.92320312 -0.95871094 0.92320312 0 0 Z " fill="#1C193F" transform="translate(550,612)"/>
<path d="M0 0 C0 0.66 0 1.32 0 2 C-1.95224208 3.28406399 -3.96340762 4.47941678 -6 5.625 C-7.11375 6.25664062 -8.2275 6.88828125 -9.375 7.5390625 C-10.24125 8.02117187 -11.1075 8.50328125 -12 9 C-12.33 8.01 -12.66 7.02 -13 6 C-11.21118264 4.99491199 -9.41885304 3.99607264 -7.625 3 C-6.62726562 2.443125 -5.62953125 1.88625 -4.6015625 1.3125 C-2 0 -2 0 0 0 Z " fill="#6C5FE1" transform="translate(710,322)"/>
<path d="M0 0 C-4.95599845 3.30399897 -8.98420444 3.09234505 -14.8125 2.5625 C-15.97394531 2.46066406 -17.13539063 2.35882813 -18.33203125 2.25390625 C-19.21246094 2.17011719 -20.09289062 2.08632813 -21 2 C-21 1.67 -21 1.34 -21 1 C-13.96094956 0.06145994 -7.09727428 -0.10808032 0 0 Z " fill="#7268E0" transform="translate(795,299)"/>
<path d="M0 0 C0 4.58228538 -2.91611967 6.8183381 -6 10 C-8.375 11.9375 -8.375 11.9375 -10 13 C-10.66 12.67 -11.32 12.34 -12 12 C-8.04 8.04 -4.08 4.08 0 0 Z " fill="#7E6CD9" transform="translate(781,678)"/>
<path d="M0 0 C0.66 0.66 1.32 1.32 2 2 C-1 5 -4 8 -7 11 C-7.66 10.34 -8.32 9.68 -9 9 C-6.03 6.03 -3.06 3.06 0 0 Z " fill="#1F2039" transform="translate(151,150)"/>
<path d="M0 0 C1.72357119 2.58535679 2.44735018 4.03811614 3.1875 6.9375 C3.36667969 7.60652344 3.54585937 8.27554687 3.73046875 8.96484375 C4.03268678 11.24680888 3.68756692 12.82026659 3 15 C3 14.34 3 13.68 3 13 C2.34 13 1.68 13 1 13 C-0.10228696 8.59085217 -0.07654536 4.51617599 0 0 Z " fill="#363639" transform="translate(1161,255)"/>
<path d="M0 0 C0.33 1.32 0.66 2.64 1 4 C0.27683594 4.61488281 0.27683594 4.61488281 -0.4609375 5.2421875 C-1.09257813 5.78101563 -1.72421875 6.31984375 -2.375 6.875 C-3.00148438 7.40867187 -3.62796875 7.94234375 -4.2734375 8.4921875 C-5.55836651 9.61432007 -6.79371975 10.79371975 -8 12 C-7.41463247 8.33939179 -5.916761 6.45464836 -3.4375 3.75 C-2.79683594 3.04359375 -2.15617188 2.3371875 -1.49609375 1.609375 C-0.75552734 0.81273437 -0.75552734 0.81273437 0 0 Z " fill="#7163E6" transform="translate(546,704)"/>
<path d="M0 0 C-1.49097658 3.7952131 -3.75700849 5.61042731 -7 8 C-7.33 7.01 -7.66 6.02 -8 5 C-3.375 0 -3.375 0 0 0 Z " fill="#8D79F4" transform="translate(712,888)"/>
<path d="M0 0 C0.66 0.99 1.32 1.98 2 3 C1.34 3 0.68 3 0 3 C-0.66 6.96 -1.32 10.92 -2 15 C-2.66 15 -3.32 15 -4 15 C-3.43179252 9.54520815 -2.05362055 5.08940744 0 0 Z " fill="#524AC5" transform="translate(298,752)"/>
<path d="M0 0 C0.99 0.33 1.98 0.66 3 1 C0.36 3.64 -2.28 6.28 -5 9 C-5.66 8.34 -6.32 7.68 -7 7 C-4.69 4.69 -2.38 2.38 0 0 Z " fill="#6F61E0" transform="translate(559,691)"/>
<path d="M0 0 C0.33 0.66 0.66 1.32 1 2 C-0.09346881 3.34212062 -1.2001575 4.67347975 -2.3125 6 C-3.23482422 7.11375 -3.23482422 7.11375 -4.17578125 8.25 C-6 10 -6 10 -9 10 C-6.03 6.7 -3.06 3.4 0 0 Z " fill="#675AE0" transform="translate(611,407)"/>
<path d="M0 0 C3.59634744 3.49359465 6.83451967 7.11098131 10 11 C7 11 7 11 5.17578125 9.35546875 C4.56089844 8.64003906 3.94601562 7.92460938 3.3125 7.1875 C2.37857422 6.12595703 2.37857422 6.12595703 1.42578125 5.04296875 C0 3 0 3 0 0 Z " fill="#1A1735" transform="translate(334,956)"/>
<path d="M0 0 C2 3 2 3 1.828125 4.97265625 C1.63734375 5.66230469 1.4465625 6.35195313 1.25 7.0625 C0.97929687 8.10083984 0.97929687 8.10083984 0.703125 9.16015625 C0 11 0 11 -2 13 C-1.85851011 11.3954444 -1.71164314 9.79136233 -1.5625 8.1875 C-1.48128906 7.29417969 -1.40007812 6.40085937 -1.31640625 5.48046875 C-1 3 -1 3 0 0 Z " fill="#5147BE" transform="translate(291,774)"/>
<path d="M0 0 C4.2742558 1.5830577 6.26531794 4.50568404 9 8 C6 8 6 8 4.39453125 6.7578125 C3.87246094 6.21898437 3.35039063 5.68015625 2.8125 5.125 C2.28269531 4.59132813 1.75289062 4.05765625 1.20703125 3.5078125 C0 2 0 2 0 0 Z " fill="#1B1836" transform="translate(578,500)"/>
<path d="M0 0 C0.66 0.33 1.32 0.66 2 1 C2 1.66 2 2.32 2 3 C-0.31 4.32 -2.62 5.64 -5 7 C-5.66 6.34 -6.32 5.68 -7 5 C-4.69 3.35 -2.38 1.7 0 0 Z " fill="#7569E2" transform="translate(709,541)"/>
<path d="M0 0 C1.90389849 2.85584773 2.69462177 4.9311762 3.625 8.1875 C4.01558594 9.53908203 4.01558594 9.53908203 4.4140625 10.91796875 C4.60742188 11.60503906 4.80078125 12.29210937 5 13 C4.34 12.67 3.68 12.34 3 12 C3 11.34 3 10.68 3 10 C2.34 10 1.68 10 1 10 C-0.1577506 6.52674819 -0.06866652 3.63932552 0 0 Z " fill="#414144" transform="translate(1153,229)"/>
<path d="M0 0 C0.99 0.33 1.98 0.66 3 1 C0.69 3.31 -1.62 5.62 -4 8 C-4.33 7.01 -4.66 6.02 -5 5 C-3.35 3.35 -1.7 1.7 0 0 Z " fill="#7565F4" transform="translate(531,720)"/>
<path d="M0 0 C1.485 0.99 1.485 0.99 3 2 C3 2.66 3 3.32 3 4 C4.32 4.66 5.64 5.32 7 6 C7 6.99 7 7.98 7 9 C5.82460004 8.07347299 4.65989423 7.13336613 3.5 6.1875 C2.52546875 5.40439453 2.52546875 5.40439453 1.53125 4.60546875 C0 3 0 3 0 0 Z " fill="#6F60F7" transform="translate(598,516)"/>
<path d="M0 0 C0.99 0.33 1.98 0.66 3 1 C1.02 3.31 -0.96 5.62 -3 8 C-3.66 7.34 -4.32 6.68 -5 6 C-3.35 4.02 -1.7 2.04 0 0 Z " fill="#7462EE" transform="translate(673,483)"/>
<path d="M0 0 C1.45945288 0.08708669 2.91765868 0.19526907 4.375 0.3125 C5.59316406 0.39951172 5.59316406 0.39951172 6.8359375 0.48828125 C9 1 9 1 11 4 C8.36 3.67 5.72 3.34 3 3 C3 2.34 3 1.68 3 1 C2.01 0.67 1.02 0.34 0 0 Z " fill="#25252A" transform="translate(258,1170)"/>
<path d="M0 0 C0.99 0.66 1.98 1.32 3 2 C0.03 4.475 0.03 4.475 -3 7 C-3.33 6.34 -3.66 5.68 -4 5 C-2.68 3.35 -1.36 1.7 0 0 Z " fill="#917CF6" transform="translate(668,929)"/>
<path d="M0 0 C0.33 0.66 0.66 1.32 1 2 C-0.65 3.98 -2.3 5.96 -4 8 C-4.99 7.67 -5.98 7.34 -7 7 C-4.69 4.69 -2.38 2.38 0 0 Z " fill="#6658DD" transform="translate(619,399)"/>
<path d="M0 0 C0.66 0 1.32 0 2 0 C2.125 7.75 2.125 7.75 1 10 C0.34 10 -0.32 10 -1 10 C-1 8.35 -1 6.7 -1 5 C-0.34 5 0.32 5 1 5 C0.67 3.35 0.34 1.7 0 0 Z " fill="#343343" transform="translate(1163,987)"/>
<path d="M0 0 C0 3.90838866 -1.50567876 5.11594107 -4 8 C-4.99 7.67 -5.98 7.34 -7 7 C-4.69 4.69 -2.38 2.38 0 0 Z " fill="#7263D7" transform="translate(633,616)"/>
<path d="M0 0 C0 3.90838866 -1.50567876 5.11594107 -4 8 C-4.99 7.67 -5.98 7.34 -7 7 C-4.69 4.69 -2.38 2.38 0 0 Z " fill="#201E46" transform="translate(657,503)"/>
<path d="M0 0 C1.7074998 1.28062485 3.37373596 2.61767557 5 4 C5 4.66 5 5.32 5 6 C5.66 6.33 6.32 6.66 7 7 C4 7 4 7 2.61328125 5.6875 C1.40885417 4.125 0.20442708 2.5625 -1 1 C-0.67 0.67 -0.34 0.34 0 0 Z " fill="#6357E9" transform="translate(566,484)"/>
<path d="M0 0 C2.56616632 3.84924948 2.55097676 6.4349304 3 11 C0.5091419 8.07594919 -0.59599278 5.83806856 -1 2 C-0.67 1.34 -0.34 0.68 0 0 Z " fill="#5E52E9" transform="translate(562,474)"/>
<path d="M0 0 C0 0.99 0 1.98 0 3 C-2.64 3 -5.28 3 -8 3 C-6.23110084 -0.53779831 -3.70375662 0 0 0 Z " fill="#343449" transform="translate(240,94)"/>
<path d="M0 0 C0 0.66 0 1.32 0 2 C1.98 2 3.96 2 6 2 C6 2.33 6 2.66 6 3 C1.1666528 3.08333357 -3.23692563 2.95261487 -8 2 C-8 1.67 -8 1.34 -8 1 C-2.25 0 -2.25 0 0 0 Z " fill="#3E3E43" transform="translate(291,1175)"/>
<path d="M0 0 C0 0.99 0 1.98 0 3 C-2.5654594 5.5654594 -4.47686668 5.54046087 -8 6 C-5.63379989 3.38472619 -3.057952 1.73559438 0 0 Z " fill="#7566DE" transform="translate(548,911)"/>
<path d="M0 0 C0.33 0.66 0.66 1.32 1 2 C1.66 2.33 2.32 2.66 3 3 C2.01 4.485 2.01 4.485 1 6 C0.34 6 -0.32 6 -1 6 C-1.33 7.32 -1.66 8.64 -2 10 C-1.125 2.25 -1.125 2.25 0 0 Z " fill="#5B4EC3" transform="translate(515,738)"/>
<path d="M0 0 C-1.39332574 3.36720387 -2.9789286 4.9859524 -6 7 C-6 4 -6 4 -4.125 1.8125 C-2 0 -2 0 0 0 Z " fill="#211C37" transform="translate(754,705)"/>
<path d="M0 0 C0.66 0 1.32 0 2 0 C0.60667426 3.36720387 -0.9789286 4.9859524 -4 7 C-3.67 5.35 -3.34 3.7 -3 2 C-2.01 2 -1.02 2 0 2 C0 1.34 0 0.68 0 0 Z " fill="#7E6DD8" transform="translate(906,691)"/>
<path d="M0 0 C0.33 0.66 0.66 1.32 1 2 C-1.3125 4.5 -1.3125 4.5 -4 7 C-4.99 7 -5.98 7 -7 7 C-4.69 4.69 -2.38 2.38 0 0 Z " fill="#181736" transform="translate(674,486)"/>
<path d="M0 0 C2.6855594 2.6855594 3.06049974 5.37621328 4 9 C3.01 8.67 2.02 8.34 1 8 C-0.1875 4.4375 -0.1875 4.4375 -1 1 C-0.67 0.67 -0.34 0.34 0 0 Z " fill="#35343A" transform="translate(1148,217)"/>
<path d="M0 0 C0.66 0.33 1.32 0.66 2 1 C-0.97 3.475 -0.97 3.475 -4 6 C-4.33 5.34 -4.66 4.68 -5 4 C-3 1 -3 1 0 0 Z " fill="#8E7BF5" transform="translate(699,900)"/>
<path d="M0 0 C0.66 0.33 1.32 0.66 2 1 C0.60667426 4.36720387 -0.9789286 5.9859524 -4 8 C-3.67 6.68 -3.34 5.36 -3 4 C-2.34 4 -1.68 4 -1 4 C-0.67 2.68 -0.34 1.36 0 0 Z " fill="#796AF7" transform="translate(543,615)"/>
<path d="M0 0 C0.66 0.33 1.32 0.66 2 1 C0.35 2.98 -1.3 4.96 -3 7 C-3.99 6.67 -4.98 6.34 -6 6 C-4.02 4.02 -2.04 2.04 0 0 Z " fill="#7E6DD1" transform="translate(877,581)"/>
<path d="M0 0 C0 0.33 0 0.66 0 1 C-5.16044765 2.512545 -8.65998179 3.33500455 -14 2 C-14 1.67 -14 1.34 -14 1 C-9.23692563 0.04738513 -4.8333472 -0.08333357 0 0 Z " fill="#575768" transform="translate(294,82)"/>
</svg>
